<svg width="96" height="96" viewBox="0 0 96 96" fill="none" xmlns="http://www.w3.org/2000/svg">
  <rect x="8" y="8" width="80" height="80" rx="24" fill="#EFF8F5" />
  <rect x="8" y="8" width="80" height="80" rx="24" stroke="#7DB9AF" stroke-width="2" />
  <circle cx="34" cy="41" r="8" fill="#143A36" />
  <circle cx="62" cy="35" r="6" fill="#2E6D67" />
  <circle cx="63" cy="59" r="7" fill="#D85D2D" />
  <path d="M23 67C25.8954 58.6637 33.8168 53 42.641 53C47.2915 53 51.6906 54.5746 55 57.3232" stroke="#143A36" stroke-width="6" stroke-linecap="round" />
  <path d="M54 44.5C56.2327 42.9002 58.9606 42 61.8333 42C67.5913 42 72.767 45.6182 75 51" stroke="#2E6D67" stroke-width="5" stroke-linecap="round" />
  <path d="M53 69C55.1647 64.2485 59.944 61 65.2472 61C69.1198 61 72.7122 62.7358 75 65.7137" stroke="#D85D2D" stroke-width="5" stroke-linecap="round" />
</svg>