<svg width="128" height="128" viewBox="0 0 128 128" fill="none" xmlns="http://www.w3.org/2000/svg">
  <defs>
    <linearGradient id="mark-bg" x1="14" y1="10" x2="114" y2="118" gradientUnits="userSpaceOnUse">
      <stop offset="0" stop-color="#FFF4D7" />
      <stop offset="0.5" stop-color="#FFD27A" />
      <stop offset="1" stop-color="#D85D2D" />
    </linearGradient>
    <linearGradient id="collab-line" x1="52" y1="87" x2="76" y2="87" gradientUnits="userSpaceOnUse">
      <stop offset="0" stop-color="#143A36" />
      <stop offset="1" stop-color="#2E6D67" />
    </linearGradient>
  </defs>

  <rect x="6" y="6" width="116" height="116" rx="30" fill="url(#mark-bg)" />
  <rect x="14" y="14" width="100" height="100" rx="24" stroke="#FFF8EB" stroke-opacity="0.55" stroke-width="1.5" />

  <rect x="20" y="30" width="40" height="32" rx="10" fill="#FFF8EB" stroke="#143A36" stroke-width="3" />
  <path d="M36 62L31 70L43 64" fill="#FFF8EB" stroke="#143A36" stroke-width="3" stroke-linejoin="round" />
  <path d="M42 40L34 46L42 52" stroke="#143A36" stroke-width="4" stroke-linecap="round" stroke-linejoin="round" />

  <rect x="68" y="30" width="40" height="32" rx="10" fill="#FFF8EB" stroke="#143A36" stroke-width="3" />
  <path d="M92 62L97 70L85 64" fill="#FFF8EB" stroke="#143A36" stroke-width="3" stroke-linejoin="round" />
  <path d="M86 40L94 46L86 52" stroke="#143A36" stroke-width="4" stroke-linecap="round" stroke-linejoin="round" />

  <circle cx="64" cy="58" r="5" fill="#D85D2D" stroke="#143A36" stroke-width="2" />

  <rect x="28" y="78" width="72" height="18" rx="9" fill="#FFF8EB" stroke="#143A36" stroke-width="3" />
  <circle cx="46" cy="87" r="4" fill="#143A36" />
  <circle cx="82" cy="87" r="4" fill="#2E6D67" />
  <path d="M52 87H76" stroke="url(#collab-line)" stroke-width="3.5" stroke-linecap="round" />
</svg>